<?xml version="1.0" encoding="UTF-8"?>
<svg width="167px" height="36px" viewBox="0 0 167 36" version="1.1" xmlns="http://www.w3.org/2000/svg" xmlns:xlink="http://www.w3.org/1999/xlink">
    <!-- Generator: Sketch 50 (54983) - http://www.bohemiancoding.com/sketch -->
    <title>logo</title>
    <desc>Created with Sketch.</desc>
    <defs>
        <polygon id="path-1" points="6.2383693e-05 0.188317757 47.7295336 0.188317757 47.7295336 30.8151598 6.2383693e-05 30.8151598"></polygon>
    </defs>
    <g id="Desktop" stroke="none" stroke-width="1" fill="none" fill-rule="evenodd">
        <g id="Desktop-home" transform="translate(-135.000000, -20.000000)">
            <g id="top" transform="translate(135.000000, -1.000000)">
                <g id="logo" transform="translate(0.000000, 21.000000)">
                    <path d="M164.58606,25.857764 L164.58606,25.143194 L165.05813,25.143194 C165.298851,25.143194 165.553628,25.1953718 165.553628,25.4813177 C165.553628,25.8344756 165.291529,25.857764 165.000732,25.857764 L164.58606,25.857764 Z M164.58606,26.1543224 L164.984333,26.1543224 L165.586719,27.1536591 L165.970935,27.1536591 L165.32345,26.1378141 C165.658467,26.0950696 165.915294,25.9140688 165.915294,25.5037217 C165.915294,25.0473874 165.647046,24.8463409 165.109964,24.8463409 L164.242844,24.8463409 L164.242844,27.1536591 L164.58606,27.1536591 L164.58606,26.1543224 Z M165.006003,28 C166.081924,28 167,27.1536591 167,25.9945464 C167,24.8463409 166.081924,24 165.006003,24 C163.919247,24 163,24.8463409 163,25.9945464 C163,27.1536591 163.919247,28 165.006003,28 Z M163.397101,25.9945464 C163.397101,25.0473874 164.101105,24.333407 165.006003,24.333407 C165.898602,24.333407 166.604071,25.0473874 166.604071,25.9945464 C166.604071,26.9570344 165.898602,27.6671825 165.006003,27.6671825 C164.101105,27.6671825 163.397101,26.9570344 163.397101,25.9945464 Z" id="Fill-1" fill="#005093"></path>
                    <g id="Group-5">
                        <mask id="mask-2" fill="white">
                            <use xlink:href="#path-1"></use>
                        </mask>
                        <g id="Clip-4"></g>
                        <path d="M34.1802405,0.617827103 C34.1802405,0.617827103 27.0950871,2.32398598 24.1541301,2.32398598 C21.2134675,2.32398598 13.4530748,0.617827103 13.4530748,0.617827103 C1.29022822,-1.8163972 -3.29185767,7.3743785 2.4713816,17.5910514 C3.2941546,19.0477617 4.32924663,20.5290981 5.58519755,21.9985561 C10.652584,27.9395467 17.3490258,30.8778832 24.031038,30.8141449 C24.7357252,27.4377523 25.9875534,24.3325374 18.5802405,22.030715 C10.8657865,19.9070701 7.50843681,13.3032009 10.8657865,8.11026636 C11.8717252,6.46031308 13.3567804,5.03373364 15.2264245,3.86674299 C15.9882405,3.38928505 16.9049521,2.91964953 17.9091239,2.6843972 C18.0012957,2.65658411 18.0696147,2.68207944 18.0696147,2.73828505 C18.0696147,2.82346262 17.9724368,2.94804206 17.8519951,3.02887383 C17.7786699,3.08942523 17.6119951,3.14389252 17.2383018,3.39392056 C14.2196025,5.28057477 13.2118969,8.34783645 15.5600687,10.7087617 C15.8966577,10.9434346 16.1914307,11.2082383 16.5665963,11.414229 C19.8995043,13.2464159 22.0041423,12.2996121 24.6953816,12.4525841 C27.3406822,12.6032383 29.3130994,13.3032009 30.9901546,14.718771 C37.0231362,19.8552103 32.8347681,27.7402196 25.2545963,30.7672103 C31.3812221,30.3729019 37.4006577,27.4499206 42.0481178,21.9985561 C43.376216,20.4416028 44.4598969,18.8747991 45.3168294,17.3268271 C50.9272344,7.18924766 46.5660074,-1.92011682 34.1802405,0.617827103" id="Fill-3" fill="#FBD020" mask="url(#mask-2)"></path>
                    </g>
                    <path d="M149.728858,28 C148.444532,28 147.194635,27.8183963 146,27.7100662 L147.009465,22.466834 C148.024428,22.7593539 149.338266,23.0122198 150.656154,23.0122198 C151.611226,23.0122198 152.178887,22.6869423 152.256427,22.2116693 C152.578739,20.2467862 146.564189,21.1576782 147.529677,15.2975107 C148.0794,11.947612 151.275316,9 156.991568,9 C157.945772,9 159.030173,9.10976679 160,9.21809685 L159.01426,14.313345 C158.171447,14.0966849 157.098619,13.9507123 156.070059,13.9507123 C155.11817,13.9507123 154.658428,14.2791507 154.576259,14.7868939 C154.334091,16.241735 160.351533,16.2058165 159.44478,21.7412813 C158.798132,25.6724842 154.933868,28 149.728858,28" id="Fill-6" fill="#005093"></path>
                    <path d="M119.417553,15.5453861 C119.230812,16.6526585 118.271383,17.3677838 117.025482,17.3677838 C115.599201,17.3677838 114.959774,16.5809484 115.145358,15.4731113 C115.332966,14.3647096 116.294997,13.6495844 117.538874,13.6495844 C118.966601,13.6495844 119.604293,14.4352904 119.417553,15.5453861 Z M116.839609,27.9199038 C118.11962,27.9199038 118.368222,28.635029 118.257507,29.2756209 C118.09158,30.278716 117.03878,31.1008417 114.988103,31.1008417 C113.301946,31.1008417 112.654714,30.3871281 112.815727,29.4204528 C112.897534,28.9187641 113.185161,28.3143096 113.726015,27.9199038 L114.275541,27.9199038 L116.839609,27.9199038 Z M128.144636,14.5795577 L129,9.4641397 L122.085109,9.4641397 C121.030575,9.17955769 119.925452,9 118.535594,9 C112.749819,9 109.398029,12.1834789 108.764094,15.9742354 C108.362862,18.3697496 109.120809,19.7638626 110.699142,20.6243844 C109.33848,21.0873948 108.115706,22.4806608 107.858432,24.0193235 C107.644229,25.3075652 108.136519,26.3089664 109.107512,26.8456632 C107.723146,27.4520939 106.334733,29.2072986 106.084397,30.7081299 C105.482549,34.282909 108.124378,36 113.216381,36 C119.771955,36 124.262688,32.3537931 124.918593,28.418487 C125.546168,24.6644325 123.448951,22.9837612 119.531736,22.9837612 L117.480193,22.9837612 C115.464494,22.9837612 115.11674,22.8739374 115.221095,22.2689183 C115.248846,22.0893606 115.442235,21.8047786 115.759636,21.6605113 L116.528279,21.6605113 C121.839109,21.6605113 125.015432,19.3002876 125.680876,15.328844 C125.727416,15.0408742 125.771066,14.7904533 125.732041,14.5795577 L128.144636,14.5795577 Z" id="Fill-8" fill="#005093"></path>
                    <polygon id="Fill-10" fill="#005093" points="58.1678261 21.098103 61.2182609 3.00224556 57.7385507 3.00224556 57.7385507 3 50 3 54.0605797 4.95532268 50.344058 27 64.0043478 27 65 21.098103"></polygon>
                    <polygon id="Fill-12" fill="#005093" points="71.1139906 9 71.1113035 9.00543228 68 9.00543228 70.8799188 10.3766539 68.0471726 27 74.9307936 27 78 9"></polygon>
                    <path d="M89.6741451,18.1325261 C89.1025302,21.6277118 87.6196702,22.6802605 86.0873048,22.6802605 C85.5795864,22.6802605 85.1890117,22.6098799 84.8375808,22.5369139 L85.4422952,18.8234049 C85.9197923,15.913958 87.2826304,14.493994 88.4863028,14.493994 C89.688824,14.493994 90.1047271,15.5129324 89.6741451,18.1325261 M91.6080225,9 C89.0173348,9 87.30911,9.87329368 86.0245595,11.4722255 L85.9528918,11.4722255 C86.1566699,10.6727596 86.2565442,10.0554214 86.3578576,9.43578504 L80.3415101,9.43578504 L80.3415101,9.44124312 L78.1232644,9.44124312 L80.1745732,10.4601815 L76,36 L82.632287,36 L83.9859149,27.7384694 C84.3028071,27.8128717 84.7328135,27.8510783 85.2431223,27.8510783 C92.0978959,27.8510783 95.799865,23.4854717 96.7940029,17.4066008 C97.6263847,12.3119088 95.9437761,9 91.6080225,9" id="Fill-14" fill="#005093"></path>
                    <path d="M137.698652,20.4604671 C137.492661,21.7299234 136.315144,22.8850461 134.920307,22.8850461 C134.013172,22.8850461 133.609835,22.3649462 133.718942,21.6924998 C133.913306,20.5350197 134.783477,19.824855 137.804181,19.824855 L137.698652,20.4604671 Z M146,27.5585781 L143.718299,26.4349856 C143.831281,25.428084 143.989576,24.4418096 144.132666,23.5958001 L145.490239,15.3469866 C146.23133,10.8579205 147.09524,9.0774993 140.423934,9.02976209 L140.228377,9 L131.679601,9 L130.79691,14.339201 L138.40397,14.339201 C138.576275,14.5557865 138.627251,14.8360216 138.567332,15.1961134 L138.501451,15.6083625 C133.100372,15.6083625 127.927643,17.660768 127.095332,22.6999907 C126.597198,25.7224635 128.034067,28 131.810171,28 C134.18816,28 136.514576,26.9539068 137.710278,25.2017742 L137.74933,25.2017742 C137.454802,26.057508 137.321548,26.8413412 137.206778,27.5515059 L138.039983,27.5515059 L138.039983,27.5585781 L146,27.5585781 Z" id="Fill-16" fill="#005093"></path>
                    <polygon id="Fill-18" fill="#005093" points="101.117011 9 101.11283 9.00543228 98 9.00543228 100.880779 10.3755103 98.0442002 27 104.928682 27 108 9"></polygon>
                </g>
            </g>
        </g>
    </g>
</svg>